# xmcd CD database file
#
# Track frame offsets:
#	150
#	10505
#	26172
#	40810
#	55657
#	69512
#	82450
#	94780
#	107057
#	124802
#
# Disc length: 1821 seconds
#
# Revision: 4
# Processed by: cddbd v1.5.2PL0 Copyright (c) Steve Scherf et al.
# Submitted via: CDex 1.72
#
DISCID=7f071b0a
DTITLE=Haggard, Merle (USA-89-5:01 Blues-cty) - 5:01 Blues
DYEAR=1989
DGENRE=Country
TTITLE0=Broken Friend
TTITLE1=Losin' In Las Vegas
TTITLE2=5:01 Blues
TTITLE3=Someday We'll Know
TTITLE4=Wouldn't That Be Something
TTITLE5=Sea Of Heartbreak
TTITLE6=A Better Love Next Time
TTITLE7=If You Want To Be My Woman
TTITLE8=A Thousand Lies Ago
TTITLE9=Somewhere Down The Line
EXTD=Spoetnik YEAR: 1989
EXTT0=
EXTT1=
EXTT2=
EXTT3=
EXTT4=
EXTT5=
EXTT6=
EXTT7=
EXTT8=
EXTT9=
PLAYORDER=
